<?xml version="1.0" encoding="UTF-8"?>
<svg width="188px" height="188px" viewBox="0 -66 188 188" version="1.1" xmlns="http://www.w3.org/2000/svg" xmlns:xlink="http://www.w3.org/1999/xlink">
    <title>Group 4</title>
    <g id="Pages" stroke="none" stroke-width="1" fill="none" fill-rule="evenodd">
        <g id="Group-4-Copy" transform="translate(-9.000000, 0.000000)">
            <g id="Group-4" transform="translate(9.000000, 0.000000)">
                <g id="Group-2" transform="translate(0.000000, 20.040348)" fill="#1D1D1B">
                    <path d="M14.2147197,8.17161106 L11.4546309,17.8935811 L17.0901764,17.8935811 L14.2147197,8.17161106 Z M0,27.1260557 L9.75732482,0 L18.8259384,0 L28.5867593,27.1260557 L19.7016854,27.1260557 L18.6406507,23.5480363 L9.75732482,23.5480363 L8.73125,27.1260557 L0,27.1260557 Z" id="Fill-43"/>
                    <polygon id="Fill-45" points="27.066875 0.00104518581 52.0230424 0.00104518581 52.0230424 7.11876056 44.0084716 7.11876056 44.0084716 27.1271009 35.0814458 27.1271009 35.0814458 7.11876056 27.066875 7.11876056"/>
                    <polygon id="Fill-47" points="55.8345521 27.1267525 55.8345521 0.000696790541 66.6179517 0.000696790541 71.4162062 16.9152872 76.2144607 0.000696790541 86.9873724 0.000696790541 86.9873724 27.1267525 78.9780455 27.1267525 78.9780455 18.8349451 79.0899174 14.6141364 79.5461449 9.72092483 79.462241 9.72092483 74.5154067 27.1267525 68.3100138 27.1267525 63.3596834 9.72092483 63.2845195 9.72092483 63.6620871 13.7100507 63.8526189 17.9308594 63.8526189 27.1267525"/>
                    <path d="M104.117928,15.7894478 C106.95318,15.7894478 109.033298,15.9322899 109.033298,18.3118296 C109.033298,20.342974 107.367456,20.7976299 105.177214,20.7976299 L101.284423,20.7976299 L101.284423,15.7894478 L104.117928,15.7894478 Z M104.420331,6.32529033 C106.306421,6.32529033 108.050923,6.36535579 108.050923,8.47314717 C108.050923,10.0618296 106.760901,10.8492029 104.988431,10.8492029 L101.284423,10.8492029 L101.284423,6.32529033 L104.420331,6.32529033 Z M105.631694,27.1262299 C112.702346,27.1262299 117.348524,25.0166966 117.348524,18.945909 C117.348524,16.0106788 115.757846,13.4882971 112.81247,12.7357633 C114.553476,11.6418022 116.362654,9.61065773 116.362654,6.81826964 C116.362654,1.43033678 111.490983,0.00191617399 105.360754,0.00191617399 L92.359145,0.00191617399 L92.359145,27.1262299 L105.631694,27.1262299 Z" id="Fill-49"/>
                </g>
                <g id="Group" transform="translate(111.884283, 0.000000)">
                    <path d="M66.9042738,31.9962285 C67.0406176,32.5588868 67.2678574,33.2661292 67.1752135,33.8827889 C65.0478999,34.0970519 62.8978624,33.8862728 60.6779049,33.872337 C60.3789972,33.4856182 60.7146129,32.9473476 60.7373368,32.5135954 C61.0519765,31.2280169 62.0116274,29.8814692 63.3313659,29.4111356 C65.0706239,29.0017711 66.3309304,30.6270351 66.9042738,31.9962285" id="Fill-51" fill="#1D1D1B"/>
                    <path d="M62.842276,34.5504884 L62.7810961,34.7630095 C62.1483208,35.1445023 61.5137975,35.4545741 60.9526902,35.8900682 C60.7604104,35.905746 60.6030906,36.0433621 60.4317868,36.1635585 C59.6084797,36.4074352 59.1050563,37.0432566 58.2625213,37.2592616 C55.6702402,38.780007 52.8909234,39.9819707 50.0556707,41.1508368 C49.0628078,41.577621 48.055961,41.9730496 47.0316341,42.3353807 C45.7888076,42.7795847 44.6438689,43.2655961 43.4325063,43.7672853 C42.7350551,43.8509001 42.2543556,44.2689745 41.5394244,44.3438794 C38.4734359,45.4935838 35.3322835,46.4690906 32.1684072,47.3853701 C31.4761999,47.5473739 30.8399287,47.8348 30.1267455,47.9323507 C28.5692793,48.4897832 26.9139252,48.9148254 25.333735,49.3328997 C23.9300926,49.6394875 22.5002302,50.0714977 21.0913438,50.4582164 C20.7172723,50.3362781 20.3729167,50.6707375 19.9603891,50.6428659 C18.2228791,51.1044897 16.3822372,51.5295319 14.6185073,52.039931 C12.204522,52.4963288 9.91988864,53.0816328 7.53911537,53.5293207 C6.92032407,53.585064 6.27006882,53.8202308 5.70721346,53.9874605 C5.55863363,53.9770087 5.38907783,53.8637802 5.25098599,53.9874605 C4.59024274,53.7888752 3.91726351,53.8864259 3.26526026,53.6251294 C1.99271772,53.3342194 0.625783283,52.998018 -2.48405456e-14,51.7960543 C0.652003253,51.4877245 1.38965841,51.4058516 2.10808559,51.2804293 C4.1042993,50.92855 6.114497,50.6794474 8.18063063,50.3972473 C9.55455706,50.04711 10.9721834,49.8345889 12.3321259,49.4548381 C12.9491692,49.5454208 13.5364965,49.1778638 14.1919957,49.1778638 C18.3906869,48.3661028 22.4180743,47.3156911 26.6167655,46.3210226 C28.1864677,45.9482397 29.719462,45.4848739 31.2524562,45.0127984 C31.7279117,45.0284761 32.2016191,44.7706636 32.6263826,44.6487253 C33.197978,44.6661451 33.6122535,44.2689745 34.1821009,44.2846522 C34.8096321,44.0494854 35.4354154,43.8961915 36.1066466,43.7080581 C37.3022773,43.2986936 38.5957958,42.9224267 39.8281344,42.6123549 C42.4483834,41.7100112 45.1263163,40.8999922 47.6748974,39.9088076 C48.926464,39.5760902 50.0451827,39.1214343 51.2443093,38.6563267 L51.7634647,38.5657439 C54.0323661,37.7522409 56.2802915,36.9073824 58.508989,36.0102646 C59.6749037,35.5068334 60.8880143,35.0452097 62.0801489,34.6724267 C62.3143806,34.5888119 62.5905643,34.3153216 62.842276,34.5504884" id="Fill-53" fill="#009FE3"/>
                    <path d="M64.8557949,34.8558568 C64.3139155,35.5387116 63.5360564,36.0560786 62.8753132,36.6518345 C61.317847,37.8834117 59.7691207,38.9529852 58.1120186,40.146239 C56.930372,40.886579 55.7102694,41.5903374 54.4814268,42.3376453 C52.9484326,43.241731 51.2790945,43.9960068 49.7495962,44.9209962 C48.172902,45.528946 46.7063317,46.4974848 45.1086615,47.0218197 C44.2259225,47.3493112 43.5476993,47.880614 42.6404884,48.0565536 C40.8715144,48.8630887 39.0675805,49.5459434 37.2374266,50.2758315 C36.5924153,50.3733822 36.1029759,50.8019084 35.4020287,50.8559096 C34.9003532,51.1172061 34.4126618,51.2269506 33.9074904,51.489989 C33.2537391,51.5387644 32.7118597,51.8505781 32.0755885,52.0404536 C31.3973652,52.0996807 30.8327619,52.4202044 30.1860026,52.5560786 C29.1022439,52.9880887 27.8768973,53.1518345 26.7686665,53.5298433 C25.0940845,54.0489523 23.4334864,54.4269612 21.7029683,54.8694231 C19.4865069,54.8171639 17.1686615,55.0314269 15.016876,54.5628353 C14.4749966,54.733549 14.114909,54.2614734 13.5520537,54.3816698 C13.291602,54.2963129 12.9787103,54.1865684 12.6955347,54.0785659 L12.6063868,53.9862411 C12.9437504,53.8190114 13.268878,53.698815 13.6726655,53.6221681 C13.9261253,53.4915199 14.2844648,53.5089396 14.5589005,53.3800334 C15.3682236,53.1814481 16.2299866,52.9306035 17.0917496,52.7685997 C17.9517646,52.5508526 18.8117797,52.3069759 19.7172426,52.1937475 C20.4461578,51.8889016 21.2817008,51.8122547 22.036836,51.5509582 C23.0978707,51.2269506 24.1658975,50.976106 25.2741283,50.7026157 C25.8212516,50.4744168 26.4243109,50.3594464 26.9801743,50.1538932 C28.0656811,49.8525313 29.2473277,49.5459434 30.3345825,49.2410976 C31.0250417,48.9554134 31.7277369,48.8317331 32.4112041,48.6052762 C32.9286115,48.3910131 33.4285389,48.3317859 33.9389543,48.1175228 C34.8391733,47.8875819 35.7079283,47.5931879 36.5941633,47.3266655 C41.7752294,45.675272 47.0104834,43.6528374 51.9468297,41.546788 C56.2294248,39.4982238 60.5836878,37.2824299 64.4589994,34.7652741 C64.5918472,34.7931457 64.782379,34.6868851 64.8557949,34.8558568" id="Fill-55" fill="#E30613"/>
                    <path d="M68.6445806,2.91846242 C71.1966577,7.76115668 71.6109332,13.4870329 72.8852237,18.859288 C73.4043791,22.3641444 74.3325661,25.6982872 74.4426899,29.3825672 C74.432202,29.7919316 74.4776499,30.2552973 74.2871181,30.5671111 L74.5021219,33.7618957 C74.2661421,34.0702255 74.4566739,34.4604282 74.3465501,34.8227593 L74.1682543,34.551011 C73.8693466,33.5424067 73.9427625,32.3456689 73.2802713,31.5077783 C71.8171969,23.2961018 70.4904665,15.0234561 68.0624972,7.20546622 C67.434966,5.65336529 66.7882067,3.79467653 65.0716727,3.01078717 C62.9111471,3.16408109 62.0493841,5.29277619 60.9201774,6.75255237 C57.3664975,12.081258 55.0538961,17.974364 50.6034932,22.7229916 C50.1595018,22.9790621 49.7032743,22.6498286 49.3519267,22.4756309 C47.9168203,21.2858611 48.0391802,19.2460068 47.2473371,17.7618429 C46.6897257,18.1851432 46.5131779,18.932451 46.0901624,19.4933674 C43.9383769,23.4441698 42.4490826,27.990728 38.4251912,30.4469147 C37.9060358,30.5043999 37.2120806,30.6124025 36.7453651,30.35459 C35.2455828,28.2311208 35.2508268,25.3272462 34.9484232,22.6271829 C34.7421594,21.0158547 34.9064712,19.2494907 34.3366239,17.7949405 C33.8873884,17.7775207 33.6356767,18.3488889 33.329777,18.6432829 C31.1028276,22.029685 29.7656091,25.9543577 27.8952513,29.5619907 C25.3187022,34.993473 22.5341414,40.4005676 19.3195731,45.5916571 C18.8528576,46.2692859 18.2078463,47.0131098 17.4282392,47.1751136 C17.3775473,46.6821343 17.7725948,46.1839291 17.8879627,45.7135954 C18.9175335,43.4768978 20.226784,41.4875608 21.121759,39.1446026 L26.6157167,26.2783653 C28.3305028,22.7282175 30.0348008,19.1066487 32.3526461,15.9379937 C33.0693253,15.1593302 33.9275923,14.3998286 35.0096031,14.6297694 C35.960514,15.2081056 36.2838936,16.4222631 36.5041414,17.4866106 C37.0757367,20.9479177 36.7243891,24.9387855 38.2136834,28.1039565 C38.8324747,28.506353 39.0457305,27.624913 39.463502,27.3113573 C42.3319667,23.357071 43.7705691,18.8714818 47.0323333,15.1175228 C47.5427487,15.1366845 48.1265801,14.7882893 48.5583356,15.17675 C49.6508343,16.6365262 48.9498871,18.9481288 50.3919855,20.1657703 L50.5091014,20.1344147 L52.9230866,16.4501347 L59.0900235,5.89898396 C60.6684657,3.40447382 62.5003676,-0.365163002 66.1064875,0.0285236537 C67.382526,0.521502961 68.0380253,1.80359756 68.6445806,2.91846242" id="Fill-57" fill="#0069B4"/>
                </g>
            </g>
        </g>
    </g>
</svg>
